<?xml version="1.0" encoding="UTF-8" standalone="no"?>
<!-- Created with Inkscape (http://www.inkscape.org/) -->

<svg
   version="1.1"
   id="svg2"
   width="2803.6133"
   height="2800"
   viewBox="0 0 2803.6133 2800"
   sodipodi:docname="shutterstock_2491571525.eps"
   xmlns:inkscape="http://www.inkscape.org/namespaces/inkscape"
   xmlns:sodipodi="http://sodipodi.sourceforge.net/DTD/sodipodi-0.dtd"
   xmlns="http://www.w3.org/2000/svg"
   xmlns:svg="http://www.w3.org/2000/svg">
  <defs
     id="defs6" />
  <sodipodi:namedview
     id="namedview4"
     pagecolor="#ffffff"
     bordercolor="#000000"
     borderopacity="0.25"
     inkscape:showpageshadow="2"
     inkscape:pageopacity="0.0"
     inkscape:pagecheckerboard="0"
     inkscape:deskcolor="#d1d1d1" />
  <g
     id="g8"
     inkscape:groupmode="layer"
     inkscape:label="ink_ext_XXXXXX"
     transform="matrix(1.3333333,0,0,-1.3333333,0,2800)">
    <g
       id="g10"
       transform="scale(0.1)">
      <path
         d="m 18952.6,14094.8 c -327.8,158.2 -899.8,149.2 -1121.3,316.5 -375.3,802.5 -1060.2,2023.2 -1589.2,2742.1 -153.7,214.7 -361.7,504.1 -373,605.8 79.1,167.3 339.1,592.3 438.6,755.1 1116.7,-140.2 3800,-4512.2 3535.5,-4697.6 -198.9,45.2 -549.3,162.8 -890.6,275.8 z M 16054.5,2321.6 c -183.1,368.5 -761.9,1516.9 -947.2,1824.3 -151.5,208 -95,280.3 253.2,682.7 404.6,477 1320.2,1858.2 1462.6,2102.4 327.8,612.6 2262.8,280.3 2927.4,461.1 226.1,-1132.5 -2961.3,-4973.3 -3698.3,-5068.2 z M 14185,4548.3 c -567.5,38.4 -3065.4,-614.9 -3207.8,58.8 -361.7,687.2 -1254.66,2513.7 -1263.71,2531.8 -29.38,72.4 76.87,241.9 275.8,544.8 477.01,671.4 1950.91,2726.3 1971.21,2816.7 83.7,52 422.8,61.1 671.4,70.1 775.4,56.5 1618.6,76.9 2353.3,43 709.8,-122.1 1548.5,-3241.7 1365.4,-3488.1 -291.6,-434.1 -1596,-2504.8 -2167.9,-2574.9 z M 10430.1,4001.2 C 10113.6,3571.7 8947.15,2068.4 8684.92,1761 8504.08,1548.5 7848.5,1636.6 6085.24,2106.8 4385.27,2176.9 3646.05,5448 3517.2,5818.7 c 158.24,626.2 942.67,1376.7 1360.88,1941.9 411.43,519.9 721.13,61 1541.73,-22.6 3063.1,-671.4 2507,-167.3 3899.49,-2988.5 180.9,-352.7 217.8,-602.1 110.8,-748.3 z M 5752.93,1695.4 C 6413.02,1492 7362.47,1225.2 8085.86,1132.5 8465.65,1137 8621.63,1008.2 8899.68,694 8456.6,746 6948.79,1073.8 5752.93,1695.4 Z M 2228.66,7050.8 C 1342.51,7882.7 854.219,8341.6 763.793,8793.7 c -445.336,3158 -363.953,4715.6 1767.787,5970.2 -40.69,63.3 1858.21,-1322.4 1869.51,-1790.4 -33.91,-386.5 47.48,-2543.1 144.68,-3201 C 5065.71,8242.1 4064.26,7756.1 3266.27,6616.7 3022.13,6101.3 2545.14,6831.5 2228.66,7053 Z m 3144.49,11786.7 c -101.73,269 3508.45,1367.7 3646.34,947.2 246.41,-208 1331.51,-1286.3 1813.01,-1826.5 291.6,-212.5 -156,-680.5 -309.7,-1037.7 -560.64,-1069.2 -850,-1643.4 -929.12,-1849.1 -113.03,-185.4 -854.5,-275.8 -1399.3,-343.6 -1211.68,-142.5 -2631.34,-698.6 -3501.67,-1069.3 -70.08,92.7 -1415.13,1116.7 -1699.97,1571.1 327.79,1030.8 1907.95,3097 2380.41,3607.9 z m 9302.35,-1297.6 c 834.2,-4.5 883.9,-330 1263.7,-897.4 359.4,-718.9 1715.8,-2177 1304.3,-2857.4 -1860.4,-2626.8 -967.5,-2735.3 -4566.4,-2647.2 -601.3,-29.4 -678.1,-33.9 -1107.7,777.7 -599,1412.8 -1656.97,2441.4 -1354.1,3164.8 1419.7,2913.9 789,2715 4462.5,2459.5 z m 3806.8,-280.3 C 15970.8,20313.7 11716.4,21665.5 7898.24,20684.4 553.559,18991.2 -2559.28,9469.6 2436.64,3784.2 11323,-6664.3 27230.9,6734.3 18482.3,17259.6"
         style="fill:#040606;fill-opacity:1;fill-rule:nonzero;stroke:none"
         id="path12" />
    </g>
  </g>
</svg>
