<svg version="1.1" id="Layer_1" xmlns="http://www.w3.org/2000/svg" xmlns:xlink="http://www.w3.org/1999/xlink" x="0px" y="0px"
	 width="100%" viewBox="0 0 1280 720" enable-background="new 0 0 1280 720" xml:space="preserve">
<path fill="#FFFFFF" opacity="1.000000" stroke="none" 
	d="
M1200.000000,721.000000 
	C800.049866,721.000000 400.599670,721.000000 1.074758,721.000000 
	C1.074758,481.079803 1.074758,241.159576 1.074758,1.119669 
	C427.666656,1.119669 854.333313,1.119669 1280.994385,1.119669 
	C1280.994385,241.067276 1280.994385,481.033630 1280.991699,721.000000 
	C1254.159302,721.000000 1227.329590,721.000000 1200.000000,721.000000 
M599.499756,314.031525 
	C612.158630,314.028351 624.818970,314.141479 637.475708,313.974701 
	C644.157043,313.886658 644.329590,313.492584 644.329773,307.304749 
	C644.330261,286.817505 644.252014,266.329651 644.405518,245.843536 
	C644.434082,242.034775 643.494385,240.627289 639.398804,240.644241 
	C602.922119,240.795303 566.444275,240.805893 529.967712,240.643204 
	C525.600830,240.623734 524.746216,242.216064 524.781006,246.151535 
	C524.951660,265.471344 524.857483,284.793365 524.881165,304.114624 
	C524.893311,313.995514 524.916382,314.019562 535.038940,314.027069 
	C556.192505,314.042725 577.346008,314.030396 599.499756,314.031525 
z"/>
<path fill="#F5F51D" opacity="1.000000" stroke="none" 
	d="
M598.999634,314.030548 
	C577.346008,314.030396 556.192505,314.042725 535.038940,314.027069 
	C524.916382,314.019562 524.893311,313.995514 524.881165,304.114624 
	C524.857483,284.793365 524.951660,265.471344 524.781006,246.151535 
	C524.746216,242.216064 525.600830,240.623734 529.967712,240.643204 
	C566.444275,240.805893 602.922119,240.795303 639.398804,240.644241 
	C643.494385,240.627289 644.434082,242.034775 644.405518,245.843536 
	C644.252014,266.329651 644.330261,286.817505 644.329773,307.304749 
	C644.329590,313.492584 644.157043,313.886658 637.475708,313.974701 
	C624.818970,314.141479 612.158630,314.028351 598.999634,314.030548 
z"/>
</svg>